<svg viewBox="0 0 330 200" xmlns="http://www.w3.org/2000/svg"><g><g><g><g><g><line x1="31.59375" y1="177" x2="26.59375" y2="177" style="visibility: inherit;" fill="rgb(0, 0, 0)" stroke="rgb(204, 204, 204)" stroke-width="1px"></line><line x1="31.59375" y1="160.9090909090909" x2="26.59375" y2="160.9090909090909" style="visibility: inherit;" fill="rgb(0, 0, 0)" stroke="rgb(204, 204, 204)" stroke-width="1px"></line><line x1="31.59375" y1="144.8181818181818" x2="26.59375" y2="144.8181818181818" style="visibility: inherit;" fill="rgb(0, 0, 0)" stroke="rgb(204, 204, 204)" stroke-width="1px"></line><line x1="31.59375" y1="128.72727272727272" x2="26.59375" y2="128.72727272727272" style="visibility: inherit;" fill="rgb(0, 0, 0)" stroke="rgb(204, 204, 204)" stroke-width="1px"></line><line x1="31.59375" y1="112.63636363636364" x2="26.59375" y2="112.63636363636364" style="visibility: inherit;" fill="rgb(0, 0, 0)" stroke="rgb(204, 204, 204)" stroke-width="1px"></line><line x1="31.59375" y1="96.54545454545453" x2="26.59375" y2="96.54545454545453" style="visibility: inherit;" fill="rgb(0, 0, 0)" stroke="rgb(204, 204, 204)" stroke-width="1px"></line><line x1="31.59375" y1="80.45454545454547" x2="26.59375" y2="80.45454545454547" style="visibility: inherit;" fill="rgb(0, 0, 0)" stroke="rgb(204, 204, 204)" stroke-width="1px"></line><line x1="31.59375" y1="64.36363636363636" x2="26.59375" y2="64.36363636363636" style="visibility: inherit;" fill="rgb(0, 0, 0)" stroke="rgb(204, 204, 204)" stroke-width="1px"></line><line x1="31.59375" y1="48.272727272727266" x2="26.59375" y2="48.272727272727266" style="visibility: inherit;" fill="rgb(0, 0, 0)" stroke="rgb(204, 204, 204)" stroke-width="1px"></line><line x1="31.59375" y1="32.18181818181817" x2="26.59375" y2="32.18181818181817" style="visibility: inherit;" fill="rgb(0, 0, 0)" stroke="rgb(204, 204, 204)" stroke-width="1px"></line><line x1="31.59375" y1="16.090909090909097" x2="26.59375" y2="16.090909090909097" style="visibility: inherit;" fill="rgb(0, 0, 0)" stroke="rgb(204, 204, 204)" stroke-width="1px"></line><line x1="31.59375" y1="0" x2="26.59375" y2="0" style="visibility: inherit;" fill="rgb(0, 0, 0)" stroke="rgb(204, 204, 204)" stroke-width="1px"></line></g><g transform="translate(21.59375, 0)"><text x="0" y="177" dx="0em" dy="0.3em" style="text-anchor: end; visibility: hidden; font-family: Roboto, sans-serif; font-size: 12px; font-weight: 200;" fill="rgb(50, 49, 63)" stroke="none" stroke-width="1px">-5</text><text x="0" y="160.9090909090909" dx="0em" dy="0.3em" style="text-anchor: end; visibility: inherit; font-family: Roboto, sans-serif; font-size: 12px; font-weight: 200;" fill="rgb(50, 49, 63)" stroke="none" stroke-width="1px">0</text><text x="0" y="144.8181818181818" dx="0em" dy="0.3em" style="text-anchor: end; visibility: hidden; font-family: Roboto, sans-serif; font-size: 12px; font-weight: 200;" fill="rgb(50, 49, 63)" stroke="none" stroke-width="1px">5</text><text x="0" y="128.72727272727272" dx="0em" dy="0.3em" style="text-anchor: end; visibility: inherit; font-family: Roboto, sans-serif; font-size: 12px; font-weight: 200;" fill="rgb(50, 49, 63)" stroke="none" stroke-width="1px">10</text><text x="0" y="112.63636363636364" dx="0em" dy="0.3em" style="text-anchor: end; visibility: hidden; font-family: Roboto, sans-serif; font-size: 12px; font-weight: 200;" fill="rgb(50, 49, 63)" stroke="none" stroke-width="1px">15</text><text x="0" y="96.54545454545453" dx="0em" dy="0.3em" style="text-anchor: end; visibility: inherit; font-family: Roboto, sans-serif; font-size: 12px; font-weight: 200;" fill="rgb(50, 49, 63)" stroke="none" stroke-width="1px">20</text><text x="0" y="80.45454545454547" dx="0em" dy="0.3em" style="text-anchor: end; visibility: hidden; font-family: Roboto, sans-serif; font-size: 12px; font-weight: 200;" fill="rgb(50, 49, 63)" stroke="none" stroke-width="1px">25</text><text x="0" y="64.36363636363636" dx="0em" dy="0.3em" style="text-anchor: end; visibility: inherit; font-family: Roboto, sans-serif; font-size: 12px; font-weight: 200;" fill="rgb(50, 49, 63)" stroke="none" stroke-width="1px">30</text><text x="0" y="48.272727272727266" dx="0em" dy="0.3em" style="text-anchor: end; visibility: hidden; font-family: Roboto, sans-serif; font-size: 12px; font-weight: 200;" fill="rgb(50, 49, 63)" stroke="none" stroke-width="1px">35</text><text x="0" y="32.18181818181817" dx="0em" dy="0.3em" style="text-anchor: end; visibility: inherit; font-family: Roboto, sans-serif; font-size: 12px; font-weight: 200;" fill="rgb(50, 49, 63)" stroke="none" stroke-width="1px">40</text><text x="0" y="16.090909090909097" dx="0em" dy="0.3em" style="text-anchor: end; visibility: hidden; font-family: Roboto, sans-serif; font-size: 12px; font-weight: 200;" fill="rgb(50, 49, 63)" stroke="none" stroke-width="1px">45</text><text x="0" y="0" dx="0em" dy="0.3em" style="text-anchor: end; visibility: hidden; font-family: Roboto, sans-serif; font-size: 12px; font-weight: 200;" fill="rgb(50, 49, 63)" stroke="none" stroke-width="1px">50</text></g><line x1="31.59375" y1="0" x2="31.59375" y2="177" fill="rgb(0, 0, 0)" stroke="rgb(204, 204, 204)" stroke-width="1px"></line></g></g><g transform="translate(31, 0)" clip-path="url(#clip_0)"><clipPath id="clip_0"><rect width="298" height="177"></rect></clipPath><g><g><g><line x1="0" y1="0" x2="0" y2="177" fill="rgb(0, 0, 0)" stroke="rgb(60, 60, 60)" stroke-width="1px" opacity="0.25"></line><line x1="33.15625" y1="0" x2="33.15625" y2="177" fill="rgb(0, 0, 0)" stroke="rgb(60, 60, 60)" stroke-width="1px" opacity="0.25"></line><line x1="66.3125" y1="0" x2="66.3125" y2="177" fill="rgb(0, 0, 0)" stroke="rgb(60, 60, 60)" stroke-width="1px" opacity="0.25"></line><line x1="99.46875" y1="0" x2="99.46875" y2="177" fill="rgb(0, 0, 0)" stroke="rgb(60, 60, 60)" stroke-width="1px" opacity="0.25"></line><line x1="132.625" y1="0" x2="132.625" y2="177" fill="rgb(0, 0, 0)" stroke="rgb(60, 60, 60)" stroke-width="1px" opacity="0.25"></line><line x1="165.78125" y1="0" x2="165.78125" y2="177" fill="rgb(0, 0, 0)" stroke="rgb(60, 60, 60)" stroke-width="1px" opacity="0.25"></line><line x1="198.9375" y1="0" x2="198.9375" y2="177" fill="rgb(0, 0, 0)" stroke="rgb(60, 60, 60)" stroke-width="1px" opacity="0.25"></line><line x1="232.09375" y1="0" x2="232.09375" y2="177" fill="rgb(0, 0, 0)" stroke="rgb(60, 60, 60)" stroke-width="1px" opacity="0.25"></line><line x1="265.25" y1="0" x2="265.25" y2="177" fill="rgb(0, 0, 0)" stroke="rgb(60, 60, 60)" stroke-width="1px" opacity="0.25"></line><line x1="298.40625" y1="0" x2="298.40625" y2="177" fill="rgb(0, 0, 0)" stroke="rgb(60, 60, 60)" stroke-width="1px" opacity="0.25"></line></g><g><line x1="0" y1="177" x2="298.40625" y2="177" fill="rgb(0, 0, 0)" stroke="rgb(60, 60, 60)" stroke-width="1px" opacity="0.25"></line><line x1="0" y1="160.9090909090909" x2="298.40625" y2="160.9090909090909" fill="rgb(0, 0, 0)" stroke="rgb(60, 60, 60)" stroke-width="1px" opacity="0.25"></line><line x1="0" y1="144.8181818181818" x2="298.40625" y2="144.8181818181818" fill="rgb(0, 0, 0)" stroke="rgb(60, 60, 60)" stroke-width="1px" opacity="0.25"></line><line x1="0" y1="128.72727272727272" x2="298.40625" y2="128.72727272727272" fill="rgb(0, 0, 0)" stroke="rgb(60, 60, 60)" stroke-width="1px" opacity="0.25"></line><line x1="0" y1="112.63636363636364" x2="298.40625" y2="112.63636363636364" fill="rgb(0, 0, 0)" stroke="rgb(60, 60, 60)" stroke-width="1px" opacity="0.25"></line><line x1="0" y1="96.54545454545453" x2="298.40625" y2="96.54545454545453" fill="rgb(0, 0, 0)" stroke="rgb(60, 60, 60)" stroke-width="1px" opacity="0.25"></line><line x1="0" y1="80.45454545454547" x2="298.40625" y2="80.45454545454547" fill="rgb(0, 0, 0)" stroke="rgb(60, 60, 60)" stroke-width="1px" opacity="0.25"></line><line x1="0" y1="64.36363636363636" x2="298.40625" y2="64.36363636363636" fill="rgb(0, 0, 0)" stroke="rgb(60, 60, 60)" stroke-width="1px" opacity="0.25"></line><line x1="0" y1="48.272727272727266" x2="298.40625" y2="48.272727272727266" fill="rgb(0, 0, 0)" stroke="rgb(60, 60, 60)" stroke-width="1px" opacity="0.25"></line><line x1="0" y1="32.18181818181817" x2="298.40625" y2="32.18181818181817" fill="rgb(0, 0, 0)" stroke="rgb(60, 60, 60)" stroke-width="1px" opacity="0.25"></line><line x1="0" y1="16.090909090909097" x2="298.40625" y2="16.090909090909097" fill="rgb(0, 0, 0)" stroke="rgb(60, 60, 60)" stroke-width="1px" opacity="0.25"></line><line x1="0" y1="0" x2="298.40625" y2="0" fill="rgb(0, 0, 0)" stroke="rgb(60, 60, 60)" stroke-width="1px" opacity="0.25"></line></g></g></g><g><g><line x1="0" y1="160.9090909090909" x2="298.40625" y2="160.9090909090909" fill="rgb(0, 0, 0)" stroke="rgb(153, 153, 153)" stroke-width="1.5px"></line></g></g><g><g><line x1="33.15625" y1="0" x2="33.15625" y2="177" fill="rgb(0, 0, 0)" stroke="rgb(153, 153, 153)" stroke-width="1.5px"></line></g></g><g><g><g><g><g><path stroke="rgb(255, 112, 67)" stroke-width="2px" d="M44.42937499999999,-0.5420489345847346L44.694625,5.669434696846133L45.225125,10.958249896473763L45.357749999999996,15.151515462055727L45.6893125,13.820486497773507L47.1481875,19.060089805783704L47.18134375,28.215530923228158L47.745,32.75992399496568L47.8113125,33.21218192494592L47.84446875,39.41967673643259L47.943937500000004,38.91680385014206L48.441281249999996,41.403598129289556L48.540749999999996,35.3123771059983L48.57390625,41.38590720953429L48.90546875,42.53825705543485L49.469125,51.12217488367442L49.5354375,49.93577502297804L50.23171875,54.333663000736514L50.3311875,58.0354378073223L50.59643749999999,57.19887149343103L50.795375,52.59367131802235L50.8616875,57.948340699749L50.96115625,55.38792714934156L51.16009375,58.537783089587194L51.325874999999996,55.554878521854235L51.6574375,57.241858359783365L51.856375,60.900479798029984L52.187937500000004,62.49708537804119L52.386874999999996,58.36290798730057L52.4531875,61.05605997237858L52.61896875,65.75994923804362L52.652125,67.68888574710529L53.14946875,67.72440909330489L53.74628125,69.00682747669052L53.812593750000005,70.27305487945803L54.210468750000004,69.91701238768015L54.4425625,75.75483170573484L54.47571875,76.92687286987648L54.54203125,72.12407554854165L54.6415,71.81833475284215L54.707812499999996,71.29641303321274L55.1056875,73.98122058104715L55.20515625,75.9635763760608L55.33778125,80.31027586935986L55.43725,73.63001864328672L55.53671875,77.01980315041627L55.66934375,84.72852078129647L55.835125000000005,88.65129390410281L56.00090625,92.87322781951248L56.86296875,96.04464256328951L56.99559375,94.59167899001118L57.12821875,95.99884803121374L57.161375,97.61459285415084L57.39346875,98.1867291372286L57.691874999999996,94.07737184402042L57.8245,94.25243337696445L57.957125,96.44225165215522L58.12290625,95.83360602391919L58.25553125,99.12207837043285L58.553937499999996,96.39899352383551L58.686562499999994,93.16149014728248L58.71971875,90.64812619397141L58.752875,93.8773528753628L58.8191875,93.02105519667542L59.05128125,91.98114000388061L59.217062500000004,93.86209238578449L59.283375,96.21649566862003L59.44915625,95.36985968421978L59.515468750000004,97.12943524468047L59.64809375,97.29271408093472L59.78071875,97.49866204841433L59.979656250000005,99.05424955282348L60.012812499999995,97.89583543448616L60.775406249999996,99.85341270977727L60.90803125,99.87137587848534L62.002187500000005,100.95791168376292L62.16796875,102.53319442847062L62.234281249999995,102.1015670060925L62.43321875,101.59731074808909L62.698468749999996,102.3695033228547L62.89740625,100.72106382953936L63.03003125,100.36874453218738L63.262125,101.61714087047986L63.3284375,98.9000530742011L63.527375,100.03744609012612L63.5936875,101.44338845263748L64.057875,101.98372705240635L64.09103125,101.30156091628044L64.42259375,101.4887980027379L64.5220625,102.14769984157084L64.82046875,101.18001552927664L64.95309375000001,98.02264973726592L65.08571875,100.37621945883683L65.384125,99.81002850868724L65.41728125,98.45483065113297L65.61621875,100.76438835594523L65.649375,101.56856095046787L65.81515625,100.72006819148544L66.21303125,102.41560091522419L66.41196875,102.09676815023093L66.5114375,105.0578476346898L66.80984375,105.01935381396815L66.9093125,104.49191152710604L67.17456250000001,103.22806490998255L67.5724375,105.08978396163673L67.80453125,104.62716572055449L68.2355625,105.15945099649728L68.4345,105.93793457217484L68.53396875,102.03688649792137L68.60028125,106.11697871438227L68.73290625,105.77195903760041L68.86553125,105.62353752749632L68.93184375,105.76083177830532L69.097625,106.03119667939885L69.13078125,104.25376328462795L69.4291875,106.39770306271791L69.628125,105.27250895865792L69.76075,103.36192613214166L69.79390625,102.19132320136862L70.12546875,103.4332689851855L70.29124999999999,105.75740847085652L70.7554375,106.9536235631824L71.51803125,106.71956169450569L71.65065625,108.96230075960113L71.6838125,109.38268500731873L71.71696875,108.77854409598838L72.31378125,107.99558093646377L72.71165625,107.88448721988163L72.74481250000001,109.71348842873073L72.94375,107.17312121664007L73.17584375,107.58952305957388L74.03790625,107.08376958581091L74.10421875,108.7445238433833L74.43578125,111.22893003478976L74.8005,110.45080614653969L74.89996875,109.13047231319015L74.9994375,108.79098842442421L75.66256249999999,108.05927339689529L75.8615,109.65884073130789L76.09359375,112.5435668649877L76.29253125,109.2525097617705L76.62409375,109.91174660607464L76.82303125,110.13867250449394L76.9225,111.29947811096164L77.28721875000001,111.00782507236535L77.38668750000001,112.02246325825186L77.48615625,110.67919099816402L77.5193125,111.13976677535659L78.116125,115.49994647018777L79.11081250000001,118.21772366103224L79.21028125,121.75689465582565L79.30975,122.91946410145658L79.34290625,124.62445415944906L80.07234374999999,125.40054299571382L80.47021875,124.64822747117873L80.53653125000001,124.85812551274765L80.66915625,123.95229273679232L80.80178125,124.72727606321797L80.93440625,123.98582721768709L81.76331250000001,122.91402971268124L81.79646875,123.76149516470035L82.1611875,124.99046467999696L82.42643749999999,125.74100054039785L82.5590625,125.26679576574485L82.625375,123.62887217463467L82.95693750000001,121.79634880221731L83.18903125,122.64996290681867L83.686375,124.93591863570386L83.819,124.04473990073829L84.61475,122.88871108910242L84.64790625,123.70739520204542L85.17840625,125.63988815716031L85.2115625,125.06238654780516L85.50996875,124.37367017941553L85.70890625,123.93676043090261L85.84153125,124.36356555391843L86.1399375,124.10549257054353L86.37203125,123.26565080577605L86.4051875,121.08977394377058L86.83621875,121.59677569466479L87.134625,121.04515158456786L87.30040625000001,121.23889332584059L87.4661875,123.81695096909277L87.56565625,122.6946394715591L87.7314375,123.33962630517223L87.83090625,122.2616719498181L87.96353125,122.51960416920282L88.22878125000001,121.92513791212183L88.49403125,121.31625815260202L88.726125,121.67304347965158L88.95821875,121.10619881561854L89.256625,120.3607293227185L89.38925,121.43110276031257L89.42240625000001,120.65088491030464L89.4555625,121.18601265921768L89.521875,123.21171139691111L89.62134375000001,122.9410135505157L89.8534375,122.16200950304557L90.15184375,123.15604493800011L90.48340625,123.03235652295852L90.61603124999999,122.02327800790243L90.68234375,122.10032326253844L90.7818125,123.70074744928885L90.94759375,124.94792941689441L91.0470625,124.07153334871177L91.08021875,123.44221188350575L91.113375,123.13406162856093L91.74334375000001,122.75405299803278L92.04175000000001,122.4368205664089L92.2406875,122.4275848588772L92.47278125,122.58519173869057L92.5059375,122.88175034983279L92.80434375,123.18580823047407L93.03643749999999,122.19431690711212L93.4343125,122.24171298445503L93.73271875,122.63405964131445L93.86534375,123.36009967528051L94.19690625,124.32976750364354L94.32953125,122.69165571675244L94.4953125,122.38021384325947L94.6279375,123.86594047997247L95.05896874999999,124.32013812248941L95.1584375,121.86388911184147L95.35737499999999,122.07283247944508L95.39053125,122.81944886760536L95.4236875,122.55713504654867L96.551,123.71378569295716L96.7499375,122.84426986076498L97.31359375000001,123.97162073909084L97.37990624999999,122.34600201360054L97.44621875,124.02599784234887L97.64515625000001,123.11037474106496L97.744625,125.36519461281635L97.8109375,124.12961842812349L97.91040625000001,124.08445202749955L98.40775000000001,124.06111981102653L98.4740625,122.55809757076453L98.87193749999999,121.95309663089311L98.90509374999999,122.52332263501893L98.93825,121.45943231281177L99.5350625,122.0587730060176L99.6676875,122.79675661255942L99.93293750000001,124.26412686848114L100.0655625,124.65640049575576L100.397125,123.39602657675034L100.49659375,122.57258653820217L100.59606249999999,126.1406729570233L100.69553125,129.5120351940027L101.49128124999999,129.86719342863526L101.88915625,130.31294559042868L101.9223125,132.0035004974568L102.02178125,132.90677385748953L102.05493750000001,132.53013371285354L102.12124999999999,133.87248169477533L102.1875625,133.65433424280624L102.3201875,133.7083564314148L102.4528125,133.4379173567182L102.61859375,133.72429701714705L102.68490625,133.30797650213617L103.18225000000001,133.31347416560828L104.1769375,132.96529236984838L104.27640625,133.18883629532212L104.3095625,133.46043488654607L104.44218749999999,133.80382381894603L104.5085,132.26485067952902L104.67428125,132.33787625716033L104.9726875,132.776351741956L105.2379375,133.94720421076198L105.37056249999999,132.24415044060848L105.702125,131.97502903417376L105.7684375,133.08947939560193L105.83475,131.61624990015633L105.86790625,131.9755261963083L106.00053125,131.82288377198418L106.10000000000001,131.46167688794637L106.36525,132.41867747648453L106.497875,131.97939682125119L106.9620625,132.17125055557472L107.161,131.24049790026157L107.32678125000001,131.5793914442363L107.35993749999999,130.7223004216288L107.42625,130.4713522628095L107.52571875,131.9705520928264L107.59203125,132.36271828100877L107.65834374999999,131.77140327418056L107.69149999999999,132.0188890226138L107.92359375000001,130.9768493756488L108.0230625,130.30833044503595L108.18884375,131.29402632377315L108.81881249999999,129.93269874631247L109.150375,129.69888828936905L109.34931250000001,129.48587054630875L109.54825,129.33967846265077L109.680875,131.48615682013306L109.71403124999999,130.97899631736615L110.07875,131.16256372975073L110.11190625,130.29638871004062L110.60924999999999,130.70989430695698L110.94081249999999,131.41423248954752L111.23921874999999,132.10231600240658L111.802875,131.8449894202805L112.3996875,132.4515368733819L112.43284375,132.1731793844384L112.49915625,131.1142987064909L112.83071875,130.45939314157476L112.96334374999999,129.66203116248835L113.29490625,130.68754164976355L113.56015624999999,130.89131145142815L113.5933125,130.32497592031757L113.95803125,131.35489064945838L114.22328125,129.98965139185012L114.42221875,129.34469261567202L114.45537499999999,129.74649378234932L114.5216875,130.6835303622607L114.58800000000001,129.10828437447202L114.75378124999999,128.83500024754144L115.58268749999999,131.21062557299663L115.61584375,129.3868652618999L115.94740625,129.82483259985568L116.01371875,130.48374507993296L116.14634375000001,128.75588611378896L116.17949999999999,128.78281061419625L116.6436875,129.7969621128692L116.842625,129.032892524846L117.00840625000001,128.94390011701387L117.07471874999999,129.25675847314025L117.14103125,128.62715322147957L117.20734375,129.55369751566252L117.638375,128.97697985500074L117.771,129.99738628280693L117.83731250000001,130.9955863176356L117.93678125,130.5974548220866L118.26834375,130.87699188905717L118.59990625,130.4423190680934L118.66621875,130.65834507078324L119.06409375000001,130.45201604931697L119.09725,129.86237139911034L119.13040625,129.6751015545652L119.39565624999999,129.27305368758866L119.59459375,129.5271220352183L120.15825,129.95105293970343L120.3571875,129.3086654330337L120.39034375,129.7314195606681L120.65559375,129.31997408969454L120.85453125000001,127.97145677021186L121.05346875000001,128.5111459141002L121.21925,128.63149297809213L121.98184375000001,128.8283925034413L122.04815624999999,128.37837232457454L122.2139375,129.76270558052465L122.37971875,130.73970147747627L122.81075,129.99675643474794L123.04284375,133.3538017391835L123.54018749999999,135.00846943614926L123.9380625,137.02647194544755L124.03753125,137.12020426906406L124.23646875,137.71529981585516L124.50171875,137.0100596870151L124.534875,137.57955437799387L124.60118750000001,137.3137522225494L124.89959375000001,137.82084265738217L125.6621875,137.23192698114804L125.69534375,137.50305724723265L125.7285,138.1900839363523L125.96059375,138.11350138872788L126.3253125,138.18326419591315L126.391625,138.28968832254057L126.78949999999999,137.75976883181448L126.82265625,136.91500043982467L126.92212500000001,137.24797088517718L126.9884375,137.26879347235166L127.02159375000001,138.07946103311247L127.983125,137.7933022475586L128.381,136.38828100063475L128.41415625,136.66228464596858L128.7125625,136.81949102753254L128.9115,136.7083326509933L129.01096875000002,136.19305160503356L129.20990625,136.27199243430033L129.34253125,136.12970942722725L129.90618750000002,135.7930554363601L129.9725,136.69179910154884L130.00565625,136.2207850030602L130.0388125,136.13309553020082L130.40353125,136.0005748279971L131.00034375,135.8098284977615L131.564,135.3974130870935L131.79609374999998,134.7813210544933L131.82925,136.1987901704823L131.92871875,136.19291552560148L132.45921875,135.217815799292L132.59184375,134.2233064590008L132.757625,134.60865369254472L132.8239375,134.5567777008118L132.89025,134.45188205433607L132.9565625,135.47992774861504L133.022875,135.54240743679998L133.15550000000002,135.21510602213857L133.18865625,135.00294141951318L133.553375,134.97135307247763L133.65284375,135.3923508720011L133.91809375,135.26754694787218L134.0175625,135.0106757142777L134.31596875,134.7451680656183L134.8133125,134.32784323494536L134.9459375,134.42025668892532L135.01225,135.0083238943089L135.50959375,135.20265331929573L135.940625,135.71223354389568L136.70321875000002,135.74538383860659L137.2005625,136.16180446157236L137.23371875,136.30657278369947L137.43265625,135.31719586609813L137.4658125,135.07804800366767L137.63159375,134.9286150584706L137.79737500000002,135.70880131629906L137.93,135.80129238507195L137.9963125,134.9240601073349L138.5268125,134.86879526461846L138.89153124999999,134.921735588281L139.123625,134.6610381305898L139.15678125,134.3291286697579L139.38887499999998,134.86181662113296L139.48834375,135.5400098356004L140.28409374999998,135.88387177313646L140.3835625,134.43784646531566L140.61565625,133.9199389638396L140.715125,133.8581436803168L140.74828125,133.79267367684022L140.81459375,133.6345279898399L140.84775,134.6317991240875L141.510875,134.1528883803141L141.67665625,133.6312973758891L141.9750625,133.06730411439844L142.041375,133.36351769202773L142.1076875,132.87017665525568L142.7708125,133.40933357521794L143.0360625,133.59413399051206L143.50025,134.11926381244245L143.53340624999998,134.65223043018787L143.6991875,133.64423540971296L143.86496875,134.48648956014773L144.0970625,133.19148622238347L144.4949375,133.4149694422813L145.05859375,132.71818351972777L145.12490625,132.28175262587476L145.19121875000002,132.96812977127016L145.2906875,133.2728654310105L145.45646875,136.5294802490959L146.020125,138.16102143539615L146.18590625,139.9066962817311L146.91534375,139.6629742898128L147.0148125,140.156367989526L147.18059375,140.6110366438521L147.4126875,140.137263334023L147.5453125,140.07194875275533L147.611625,140.50669431282705L147.8105625,140.31020563230186L147.84371875,140.6637165689674L148.04265625,139.88948951627057L148.27474999999998,140.49947618393338L148.47368749999998,140.5924615407156L148.57315625,139.45775234973343L149.1368125,139.64458704896137L149.203125,139.63929366739285L149.5346875,139.2324165532744L149.63415625000002,138.9610913303078L149.70046875,139.12889752112946L149.86625,140.5634919661578L150.39675,140.77246565754447L150.4630625,139.78099798250608L150.662,139.8284825209989L150.794625,139.5886752094266L150.8609375,139.96752193765104L151.32512499999999,139.61448883314503L151.723,139.86435758086515L151.88878125,139.40552828156797L152.28665625,139.46034588157173L152.51874999999998,139.93907684712485L152.55190625,139.11055674906083L153.14871875,139.2489166411002L153.21503125,139.3986836021306L153.28134375000002,139.30496326574834L153.3808125,138.74069171774423L153.48028125,138.98252456031517L154.0439375,138.33962615656043L154.40865625,139.0440034833816L154.4418125,139.88546468366243L154.64075,139.7344820531063L154.87284375000002,139.2542251441174L155.66859374999999,138.69578541661517L155.86753124999998,138.21077714638133L155.93384375,138.49256273239223L156.630125,138.04925156627084L156.72959375000002,138.9001959391799L156.86221874999998,138.54380762767806L156.895375,139.19233697875637L156.92853125,138.9073058737773L157.12746875,139.3482811807938L157.2269375,138.31855496987876L157.29325,138.1621758299941L157.59165625,138.20327936940095L157.82375,138.2360666213576L157.98953125000003,136.76547062245055L158.25478125,137.70088720620626L158.38740625,138.38434554366117L158.52003125000002,138.52811742474074L158.95106249999998,138.13060610464692L159.017375,138.65548633027416L159.11684375000002,138.29064868806262L159.51471875000001,138.70454732510342L159.64734375,139.32712978236341L159.813125,139.44412174703703L159.8794375,138.43783962537066L160.21099999999998,138.6124670975324L160.2773125,138.1047720592785L160.343625,137.75129562040485L160.77465625,138.59805447948168L161.30515625,138.87810164257294L161.4709375,138.4029447341011L161.70303124999998,137.8587181066627L162.5319375,137.09431769483038L162.56509375000002,137.47198683216368L162.59825,137.84227485880857L162.83034375,137.7498946602137L163.16190625000002,138.53940070284986L163.42715625,138.30432146308064L163.65925,138.46755036824922L163.791875,138.42371382857115L164.15659374999998,138.02764582893647L164.35553125,137.39584147088925L164.55446874999998,137.45677902540575L165.15128124999998,137.2214238300384L165.28390625,137.472046053838L165.648625,137.83533494736628L165.81440625,138.43002095424296L165.9801875,138.32436562485844L166.1128125,137.858193298893L166.14596875,138.06138597639503L166.51068750000002,138.32676776595176L166.54384375,136.6775563954331L166.90856250000002,136.80583779372515L166.974875,137.27413741411684L167.00803125,137.1481321670148L167.24012499999998,138.14460093689434L167.33959375,138.39335580264287L167.37275,138.32845754425216L167.40590625000002,138.2419678364046L168.33428125,139.72129516911681L168.89793749999998,140.3191184461301L169.06371875000002,140.7389727704202L169.09687499999998,140.4435087843224L169.1631875,140.53116285518263L169.4284375,140.8550856005441L171.3515,141.50356621614478L171.84884375000001,141.39855569329328L172.2135625,141.2265565255507L172.24671874999999,140.12279139199836L172.31303125,140.89930673286526L172.37934375,141.5196829929662L172.47881249999998,141.8692895015903L172.51196875,141.82954806896288L172.57828125,141.76580126097775L173.340875,141.42414589552487L173.50665625,141.0898209141127L173.606125,140.8351306292726L173.70559375000002,141.25161867047683L173.871375,140.96245523743124L174.23609375,140.43991917142824L174.5345,140.19454315546704L174.63396874999998,140.45438236175835L174.667125,139.81468684974988L174.96553125,140.47892884305418L175.16446875,140.59368074569068L175.69496875,140.331333930147L175.89390625,140.9013430376148L176.02653125,140.89634101072363L176.3249375,140.56200986627746L176.39125,140.74883377246647L176.68965625,140.12422444463778L176.82228124999997,140.0115904522219L177.02121875,139.96497751601754L177.18699999999998,140.15136594783738L177.3859375,140.01829547368735L177.68434375,140.28585352502938L177.9164375,139.90141487838432L178.0490625,139.33556022380571L178.34746875,140.40971540813155L178.84481250000002,140.73277029116022L179.07690625,140.05519257020396L179.27584374999998,140.67855398261864L179.40846875,139.78942489084739L179.44162500000002,140.1950936787933L180.07159375,139.92415658999417L180.10475,139.4456227853397L180.17106249999998,139.94920632806418L180.37,139.68195787193395L180.46946875,139.84833078381266L181.3646875,139.1179483534885L181.563625,139.6167075628688L181.69625000000002,139.05780725533936L181.79571875,139.33468815402927L182.06096875,138.81409818252877L182.12728124999998,139.4648821904066L182.6909375,139.3517345905945L182.72409374999998,138.96902354937845L183.3540625,138.89191142049842L183.38721875,139.115290739212L183.48668750000002,139.47818767151017L183.71878125,139.77771481986943L183.78509375000002,139.79248247204973L184.05034375,140.43095856268096L184.11665625,140.38370889129843L184.14981250000002,139.90091170632226L184.58084374999999,139.90659411657788L184.64715625,139.97299494428978L184.97871875,140.18409475571403L185.0781875,140.99109311372118L185.44290625,140.53678057484782L185.542375,139.68467626963016L185.6086875,139.29401386669198L185.675,138.8453332759034L186.07287499999998,138.67932700259038L186.63653125000002,138.81541518307168L187.133875,138.90028450537858L187.3328125,138.134585587621L187.56490625,138.90703500513828L187.83015625000002,139.23210125557432L187.96278125,139.4920959958761L188.19487500000002,139.2723886746852L188.22803125,139.03795637805663L188.2611875,139.50589041022465L188.59275,139.53206797707517L189.28903125,139.2413404927215L189.45481249999997,139.20399996671443L189.62059375,139.7778163022166L189.81953124999998,139.67128700825313L190.15109375,139.90237106872695L190.316875,141.69668964923733L190.5158125,142.46027460802384L190.64843749999997,143.26188519813616L190.68159375,143.79452655802965L190.94684375,143.45824895414376L191.0463125,143.54484986784203L191.07946875,143.50275424499054L191.14578125,144.02106531596516L191.24525,143.59417036744662L191.27840625000002,143.79790203403334L191.54365625,143.7131789097677L191.643125,143.15032813887376L191.67628125,143.29807521806325L191.74259375,143.12026197876054L191.80890625,143.42813481440365L191.90837499999998,143.71666827822403L191.94153125,143.92324274522144L192.14046875,143.4953477633882L192.33940625,142.46605390755573L192.40571875,141.24906753698838L192.50518749999998,141.3991032682757L193.16831249999998,141.26571958689203L193.234625,141.5098603299051L193.66565625,141.2897337319563L194.06353124999998,140.75590556482408L194.69350000000003,140.92109873870245L194.75981249999998,140.6777837896193L195.29031250000003,140.42227530903327L195.38978125,140.84429216032342L195.45609375,140.60224817064474L195.48925,140.93511716785093L196.11921875000002,140.7886812147675L196.91496874999999,140.83101013849517L197.0144375,140.58434244798192L197.44546874999997,141.43579031514702L197.71071875,139.82457832616208L197.97596875,140.29071140318462L198.009125,140.87326512094128L198.10859374999998,141.61150466860082L198.17490625,141.29205147031666L198.2080625,140.7681221418169L198.67225000000002,140.2963333549199L198.9375,140.02088187912958L199.6669375,139.97632534426907L199.86587500000002,140.02793136073626L199.96534375,139.7390213688765L200.1974375,139.9056669086006L200.62846875,138.71215307900937L200.69478125,139.9662984724944L200.7279375,140.54578130503762L200.96003125,140.3118261105705L201.55684374999998,140.07761227345344L202.08734374999997,139.91682977016117L202.31943750000002,139.81948189252552L202.48521875,140.23346126353377L202.518375,140.21873455688737L202.7173125,140.2973757869001L203.14834375,140.50078924236487L203.21465625000002,141.13767655389728L203.41359375,141.55008128939403L204.27565625,141.17875543520756L204.4414375,140.6671290129667L204.87246875,140.17086351173955L205.00509375000001,138.82822940589958L205.60190624999998,140.07836042158263L205.86715625,140.57248183675085L206.62975,140.07512897451477L206.72921875,139.40343338196783L206.762375,139.7759370273885L206.8286875,140.17564898345634L206.895,140.97659799714057L206.92815625,140.91849171565383L207.06078125,140.18967189068712L207.65759375,139.78799687040194L207.79021875,139.68631169077253L208.5528125,139.6552537454483L208.98384375,140.14538631431887L209.51434375,140.2791417346862L209.8790625,140.26745281008772L209.91221875,140.4762184824005L210.4095625,140.85178548563616L210.50903125,140.67580806339873L210.87375,140.26135440521676L210.90690625,140.57494452692467L211.00637500000002,140.43541291782606L211.57003125,141.2009929844048L211.70265625,140.7073513108566L212.36578125,140.04588663739952L212.43209375,139.83377670081796L212.89628125,140.91102157330283L213.0620625,141.39765267093262L213.52624999999998,141.88638624977636L213.55940625,142.84971162782324L213.62571875,142.7382071279224L213.79149999999998,141.86099213952423L214.71987499999997,142.35369246902283L215.01828124999997,143.20162005918914L215.25037500000002,142.7970175399968L215.38299999999998,142.92380481221718L215.5819375,142.90086809518274L215.780875,142.39246210106162L215.94665625000002,142.38579614852094L216.046125,141.83127785446234L216.1124375,141.97090709769827L216.60978125,141.83254951596538L216.9081875,141.95941580271887L217.17343749999998,141.63378704932487L217.505,141.79449874770572L217.73709375,142.61894082369113L217.902875,142.31609498585286L217.9691875,142.36287380087117L218.06865625,141.65601626716156L218.3670625,141.69868076221675L218.43337499999998,141.77170130997456L218.6323125,141.90665478104088L219.03018749999998,142.39466344385312L219.19596875,142.12511179672515L219.46121875,142.66183370595368L219.52753125,142.5606186853198L219.85909375,142.67235452917396L219.92540625,142.31964050209467L220.42275,142.57608994312469L220.78746875000002,141.4956331064166L220.85378125000003,141.85535983252782L220.98640625,141.91525380442948L221.38428125000002,141.9601353786937L221.48375000000001,142.3940560946035L222.6110625,142.16446518974328L222.84315625,142.37270410843604L222.942625,142.2836251839004L223.07524999999998,141.80643001396018L223.5394375,142.25099880260993L223.90415625,142.0648634576746L224.13625,141.60845387103032L224.36834375,142.01955391913143L224.69990625,141.63576365419104L224.799375,141.58961876283266L224.96515625,141.80177073682003L225.13093750000002,141.44552379296647L225.329875,141.72958382991806L225.3961875,141.84841298022403L225.72775000000001,141.78055759676144L225.76090625,142.21514319619607L226.3245625,142.08189304593031L226.42403124999998,142.1501416869332L226.656125,141.78195502877813L227.05399999999997,141.68762795390128L227.55134375,141.76380761215677L227.61765625,142.24884625719108L227.84975,141.4989703478094L228.18131250000002,141.3804631204954L228.4465625,141.5511183340282L228.512875,141.72153739099198L228.57918750000002,141.82866439321336L228.67865625,142.21409892043505L228.74496875,141.19076849948894L229.043375,141.83207832534035L229.37493750000002,141.35970584433085L229.40809375,141.54955005661404L229.73965625,141.861232286027L229.87228125,142.58652569655072L229.9054375,142.52631260212897L230.53540625,141.5717530680911L230.7011875,141.92825224770948L230.76749999999998,142.11482758181327L230.80065625,141.4048863139084L230.900125,141.55735187459882L231.19853125,141.22146861294067L231.79534375,141.07007236108493L232.45846875,140.5842129320873L232.62425,141.1028076165411L232.756875,141.4004751305603L232.92265625,141.84859517438332L233.12159375000002,141.93907346219058L233.15475,141.9166827206138L233.18790625000003,141.8401500895216L233.287375,141.7820811821143L233.38684375,141.8698711464856L233.85103124999998,141.7890934066913L234.01681250000001,141.4291508252315L234.11628125000001,140.68586524683678L234.6799375,141.47965331724714L234.71309375,142.42591483677828L234.84571875,142.4295035224283L235.0115,142.21184184373706L235.24359375,143.38005491453637L235.542,143.5793344991535L235.6083125,144.03435274833134L235.939875,143.7112885219458L236.1388125,144.23629580784188L236.205125,144.411459827928L236.4040625,144.3717520890231L236.470375,144.3799215578683L236.5366875,144.000207642751L236.9345625,144.01043628456418L237.000875,143.8260089187321L237.0671875,143.42445179025407L237.3324375,143.89836368723394L237.82978125000002,143.9925274563922L237.96240625,144.16437958307716L238.12818750000002,143.88650170808714L238.22765625,144.08284060559626L238.75815624999998,144.00893646133028L239.08971874999997,144.05008613660817L239.122875,143.63710670099678L239.1891875,143.5082735698257L239.38812499999997,143.9720414352914L239.42128125,144.41005480960013L239.5870625,144.55176791550085L239.81915625,144.26546569120612L239.98493749999997,144.33809683429598L240.21703125000002,144.54915370701735L240.41596875,144.52405104406793L240.847,144.1594751162146L241.07909375,143.9847944315507L241.70906250000002,144.17444811029094L242.3721875,143.83821734612175L242.47165625,144.0228819263387L242.60428124999999,143.73277676461228L242.6374375,143.88726115223437L242.86953125,143.77767371695876L243.4331875,143.50204901347269L243.79790624999998,143.86388925777067L244.162625,143.96826975558457L244.39471874999998,144.09170301088247L244.59365625,144.11173580202953L245.38940625,143.03553151306699L246.15200000000002,142.24658030476846L246.45040625000001,142.45103630167432L246.94775,142.8909293461735L246.98090625,142.84933775976486L247.213,143.01751189658157L247.345625,143.4088923245778L247.6771875,143.69310113002612L247.77665625,143.24298065787406L247.8098125,142.98802245137063L248.141375,143.49881716969156L248.274,143.35991887029084L248.53925,142.99383193186023L248.57240625,142.85240860486144L248.70503125,143.01653451699843L249.0034375,142.611965367126L249.03659375,142.9324664635118L249.36815625,143.09859692827797L249.4013125,143.11902497548152L249.43446875,143.44343417044183L249.69971875,142.93249727677903L249.83234375,142.09517833585502L250.36284375,141.768631517532L250.62809375,141.9612603577737L251.05912500000002,142.2484186181177L251.15859375,142.19014825006096L251.29121875,142.78077855574946L251.35753125000002,142.59590958353957L251.3906875,141.91692774489138L251.49015624999998,141.59833008318637L251.78856249999998,142.09409439876103L251.82171875,142.65359129182787L252.120125,143.2874497795079L252.21959375,143.09709200113315L252.55115625000002,142.89047970324336L252.7169375,143.5402078263572L253.6453125,143.59734104394218L253.9105625,143.82200383485034L254.20896875,143.2199112367345L254.27528125,143.20234301972846L254.40790625,142.89456553598592L254.60684375,143.41076732285663L254.67315625,142.66788253366204L254.7063125,143.27593912394036L254.93840624999999,142.46613376813752L255.037875,142.60337920982937L255.20365625,142.71099189801234L255.303125,142.6757266848279L255.33628125,142.4003695692741L255.568375,142.58146978913305L255.70100000000002,142.18012512493357L255.83362499999998,142.88615634118995L256.1651875,142.94338807129333L256.19834375,142.80686125283793L256.59621875,142.65747596717904L256.72884375,142.394947810643L256.9609375,141.76217566839154L257.09356249999996,142.0775849767296L257.45828124999997,142.39519433057012L257.85615625,143.0087282073675L258.38665625,143.52175780607334L259.0829375,143.42952302304386L259.21556250000003,143.53482914322194L259.71290625,143.45424708837237L259.8786875,143.35096346825557L259.97815625,143.56054764313708L260.17709375000004,143.58572996624778L260.30971875,143.6300896992755L260.44234375,143.64117222360693L260.70759375,143.45098456613104L260.90653125,143.13846526318824L260.9396875,142.49161231664874L260.97284375,142.62505681342898L261.50334375,142.80512145502848L261.7354375,142.86792604185143L261.80174999999997,142.73797101401578L262.0006875,143.22627469325943L262.2659375,143.41972300479287L262.36540625,143.08571254890845L262.49803125,143.29209978304047L262.56434375000003,143.10838463053872L262.82959375,143.0848550837709L263.09484375,143.28743465670786L263.1943125,143.48357988055037L263.6585,142.6334093661798L263.791125,142.60726442450078L264.056375,142.21300246046442L264.15584375000003,142.31796277208275L264.35478125,143.0200576113975L264.9184375,143.45884151610719L264.95159375,143.2058872301377L265.01790625,143.05203872111153L265.3163125,143.10721324717665" style="fill: none;" fill="none"></path></g></g></g></g><g opacity="0.2"><g><g><g><path stroke="rgb(255, 112, 67)" stroke-width="2px" d="M44.130968749999994,-8.915519090132296L44.42937499999999,18.12370730313388L44.694625,14.986660142378375L45.225125,18.89147269509056L45.357749999999996,21.441413810036398L45.6893125,11.823943051424887L47.1481875,26.919494767622513L47.18134375,41.94869259920987L47.745,39.57651360251686L47.8113125,33.890568819913L47.84446875,48.730918953635474L47.943937500000004,38.16249452070756L48.441281249999996,45.13378954800693L48.540749999999996,26.175545571067122L48.57390625,50.49620236483488L48.90546875,44.26678182428534L49.469125,63.998051626032044L49.5354375,48.1561752319336L50.23171875,60.93049496737393L50.3311875,63.588100017200816L50.59643749999999,55.9440220225941L50.795375,45.68587105490945L50.8616875,65.98034477233887L50.96115625,51.54730682373047L51.16009375,63.26256699995562L51.325874999999996,51.0805216702548L51.6574375,59.77232811667703L51.856375,66.38841195539996L52.187937500000004,64.89199374805798L52.386874999999996,52.16164190118964L52.4531875,65.09578794999557L52.61896875,72.81578313654119L52.652125,70.5822905106978L53.14946875,67.77769411260432L53.74628125,70.9304550517689L53.812593750000005,72.17239598360929L54.210468750000004,69.3829486500133L54.4425625,84.51156068281693L54.47571875,78.68493461608887L54.54203125,64.91987956653942L54.6415,71.35972355929287L54.707812499999996,70.51353045376864L55.1056875,78.00843190279873L55.20515625,78.93711006858132L55.33778125,86.8303251093084L55.43725,63.60963280417702L55.53671875,82.10447991111062L55.66934375,96.29159722761675L55.835125000000005,94.53545358831232L56.00090625,99.20612869262696L56.86296875,100.80176467895508L56.99559375,92.41223363009367L57.12821875,98.10960159301759L57.161375,100.03821008855647L57.39346875,99.04493356184526L57.691874999999996,87.91333590420808L57.8245,94.5150256763805L57.957125,99.7269790649414L58.12290625,94.92063758156517L58.25553125,104.0547868902033L58.553937499999996,92.31436625393955L58.686562499999994,88.30523508245294L58.71971875,86.87808026400481L58.752875,98.72119289744984L58.8191875,91.73660867864436L59.05128125,90.42126721468838L59.217062500000004,96.68352095864034L59.283375,99.74810059287333L59.44915625,94.09990570761941L59.515468750000004,99.76879858537154L59.64809375,97.53763233531605L59.78071875,97.80758399963379L59.979656250000005,101.38763080943714L60.012812499999995,96.15821425698019L60.775406249999996,102.78977862271397L60.90803125,99.89832063154742L62.002187500000005,102.58771539167924L62.16796875,104.89611854553222L62.234281249999995,101.4541258725253L62.43321875,100.84092636108399L62.698468749999996,103.52779218500311L62.89740625,98.2484045895663L63.03003125,99.84026558615946L63.262125,103.4897353779186L63.3284375,94.82442137978295L63.527375,101.74353561401368L63.5936875,103.55230199640448L64.057875,102.79423495205965L64.09103125,100.27831171209161L64.42259375,101.76965363242411L64.5220625,103.13605259982022L64.82046875,99.7284890608354L64.95309375000001,93.28660104924981L65.08571875,103.90657404119318L65.384125,98.96074208346279L65.41728125,96.42203386480158L65.61621875,104.22872491316363L65.649375,102.77481984225186L65.81515625,99.44732905301181L66.21303125,104.95890000083229L66.41196875,101.61851900274104L66.5114375,109.49946686137805L66.80984375,104.96161308288573L66.9093125,103.70074809681286L67.17456250000001,101.3322949842973L67.5724375,107.88236253911799L67.80453125,103.9332383589311L68.2355625,105.95787891041148L68.4345,107.10565993569115L68.53396875,96.1853143865412L68.60028125,112.23711703907358L68.73290625,105.25442952242764L68.86553125,105.4009052623402L68.93184375,105.96677315451882L69.097625,106.43674403103915L69.13078125,101.58761319247158L69.4291875,109.61361272985285L69.628125,103.58471780256791L69.76075,100.49605189236726L69.79390625,100.43541880520907L70.12546875,105.29618766091086L70.29124999999999,109.243617699363L70.7554375,108.74794620167125L71.51803125,106.3684688914906L71.65065625,112.32640935724433L71.6838125,110.01326137889515L71.71696875,107.87233272899282L72.31378125,106.82113619717684L72.71165625,107.71784664500845L72.74481250000001,112.4569902420044L72.94375,103.36257039850409L73.17584375,108.21412582397461L74.03790625,106.32513937516646L74.10421875,111.23565522974188L74.43578125,114.95553932189942L74.8005,109.28362031416461L74.89996875,107.14997156316583L74.9994375,108.2817625912753L75.66256249999999,106.96170085560192L75.8615,112.05819173292682L76.09359375,116.87065606550736L76.29253125,104.31592410694469L76.62409375,110.90060187253086L76.82303125,110.4790613521229L76.9225,113.04068652066319L77.28721875000001,110.57034551447089L77.38668750000001,113.54442053708163L77.48615625,108.66428260803222L77.5193125,111.83063044114546L78.116125,122.04021601243451L79.11081250000001,122.29438944729891L79.21028125,127.0656511480158L79.30975,124.66331826990302L79.34290625,127.18193924643776L80.07234374999999,126.56467625011096L80.47021875,123.51975418437613L80.53653125000001,125.172972575101L80.66915625,122.59354357285932L80.80178125,125.88975105285645L80.93440625,122.87365394939076L81.76331250000001,121.30633345517246L81.79646875,125.03269334272906L82.1611875,126.83391895294189L82.42643749999999,126.8668043309992L82.5590625,124.55548860376533L82.625375,121.17198678796942L82.95693750000001,119.04756374359131L83.18903125,123.9303840637207L83.686375,128.36485222903164L83.819,122.70797179828989L84.61475,121.15466787164863L84.64790625,124.93542137145995L85.17840625,128.53862758983263L85.2115625,124.1961341337724L85.50996875,123.34059562683105L85.70890625,123.28139580813323L85.84153125,125.00377323844215L86.1399375,123.71838309548117L86.37203125,122.00588815862483L86.4051875,117.82595865076239L86.83621875,122.35727832100609L87.134625,120.2177154194225L87.30040625000001,121.52950593774969L87.4661875,127.68403743397104L87.56565625,121.01117222525856L87.7314375,124.30710655559193L87.83090625,120.6447404167869L87.96353125,122.90650249827993L88.22878125000001,121.03343852650035L88.49403125,120.40293851332231L88.726125,122.20822147022595L88.95821875,120.25593181956897L89.256625,119.24252508336846L89.38925,123.03666291670366L89.42240625000001,119.48055813529275L89.4555625,121.98870428258722L89.521875,126.25025950345125L89.62134375000001,122.53496678092264L89.8534375,120.99350343184038L90.15184375,124.6470980904319L90.48340625,122.84682390039617L90.61603124999999,120.50966023531826L90.68234375,122.2158911444924L90.7818125,126.1013837294145L90.94759375,126.81870236830278L91.0470625,122.75693924643778L91.08021875,122.49822968569669L91.113375,122.67183624614368L91.74334375000001,122.18404005224053L92.04175000000001,121.96097191897304L92.2406875,122.41373129757967L92.47278125,122.82160205841065L92.5059375,123.32658826654608L92.80434375,123.641895051436L93.03643749999999,120.70707992206921L93.4343125,122.31280710046943L93.73271875,123.22257962660356L93.86534375,124.44915972622957L94.19690625,125.78426924618809L94.32953125,120.23448803641578L94.4953125,121.91305103302001L94.6279375,126.09453043504195L95.05896874999999,125.00143458626486L95.1584375,118.17951559586959L95.35737499999999,122.38624753085051L95.39053125,123.93937344984576L95.4236875,122.16366431496361L96.551,125.44876166256991L96.7499375,121.53999611247669L97.31359375000001,125.66264705657959L97.37990624999999,119.90757392536509L97.44621875,126.5459915854714L97.64515625000001,121.73694008913907L97.744625,128.74742442044345L97.8109375,122.27625415108422L97.91040625000001,124.01670242656363L98.40775000000001,124.02612148631702L98.4740625,120.30356421037153L98.87193749999999,121.04559522108597L98.90509374999999,123.37866164120761L98.93825,119.86359682950108L99.5350625,122.9577840458263L99.6676875,123.90373202237215L99.93293750000001,126.46518225236373L100.0655625,125.2448109366677L100.397125,121.50546569824219L100.49659375,121.33742648037997L100.59606249999999,131.492802585255L100.69553125,134.56907854947175L101.49128124999999,130.39993078058416L101.88915625,130.9815738331188L101.9223125,134.53933285799894L102.02178125,134.26168389753863L102.05493750000001,131.96517349589956L102.12124999999999,135.88600366765803L102.1875625,133.32711306485263L102.3201875,133.7893897143277L102.4528125,133.0322587446733L102.61859375,134.1538665077903L102.68490625,132.6834957296198L103.18225000000001,133.32172066081654L104.1769375,132.4430196762085L104.27640625,133.52415218353272L104.3095625,133.86783277338202L104.44218749999999,134.31890721754596L104.5085,129.9563909704035L104.67428125,132.44741462360727L104.9726875,133.4340649691495L105.2379375,135.70348291397096L105.37056249999999,129.6895697853782L105.702125,131.5713469245217L105.7684375,134.76115493774415L105.83475,129.40640565698797L105.86790625,132.5144406405362L106.00053125,131.59392013549805L106.10000000000001,130.91986656188965L106.36525,133.85417835929178L106.497875,131.3204758384011L106.9620625,132.4590311570601L107.161,129.8443689172918L107.32678125000001,132.0877317601984L107.35993749999999,129.43666388771751L107.42625,130.09493002458052L107.52571875,134.21935183785178L107.59203125,132.95096756328235L107.65834374999999,130.8844307639382L107.69149999999999,132.39011764526367L107.92359375000001,129.4137899052013L108.0230625,129.30555204911664L108.18884375,132.772570141879L108.81881249999999,127.8907073801214L109.150375,129.34817260395397L109.34931250000001,129.1663439317183L109.54825,129.12039033716374L109.680875,134.70587435635653L109.71403124999999,130.21825556321576L110.07875,131.43791484832764L110.11190625,128.99712618047542L110.60924999999999,131.33015270233153L110.94081249999999,132.47073976343327L111.23921874999999,133.13444127169524L111.802875,131.45899954709142L112.3996875,133.361358053034L112.43284375,131.75564315102318L112.49915625,129.52597768956966L112.83071875,129.47703479420053L112.96334374999999,128.46598819385878L113.29490625,132.22580738067626L113.56015624999999,131.1969661539251L113.5933125,129.47547262365168L113.95803125,132.89976274316962L114.22328125,127.94179250543769L114.42221875,128.3772544514049L114.45537499999999,130.3491955323653L114.5216875,132.0890852321278L114.58800000000001,126.74541539278897L114.75378124999999,128.42507405714557L115.58268749999999,134.77406356117945L115.61584375,126.65122479525479L115.94740625,130.48178360678932L116.01371875,131.47211380004882L116.14634375000001,126.16409766457298L116.17949999999999,128.82319736480713L116.6436875,131.31818936087868L116.842625,127.88678814281118L117.00840625000001,128.81041150526568L117.07471874999999,129.72604600732976L117.14103125,127.68274534398859L117.20734375,130.9435139569369L117.638375,128.11190336400813L117.771,131.52799592451615L117.83731250000001,132.4928863698786L117.93678125,130.00025757876307L118.26834375,131.29629748951305L118.59990625,129.79030983664774L118.66621875,130.98238407481801L119.06409375000001,130.14252251711758L119.09725,128.97790442380037L119.13040625,129.39419678774746L119.39565624999999,128.6699818871238L119.59459375,129.90822455666284L120.15825,130.5869492964311L120.3571875,128.3450841730291L120.39034375,130.3655507521196L120.65559375,128.7028058832342L120.85453125000001,125.9486807909879L121.05346875000001,129.32067962993273L121.21925,128.81201357408003L121.98184375000001,129.12374179146505L122.04815624999999,127.70334205627442L122.2139375,131.8392054644498L122.37971875,132.20519532290373L122.81075,128.88233887065542L123.04284375,138.38936969583685L123.54018749999999,137.4904709815979L123.9380625,140.05347570939497L124.03753125,137.26080275448885L124.23646875,138.60794313604183L124.50171875,135.95219949375502L124.534875,138.433796414462L124.60118750000001,136.91504898938265L124.89959375000001,138.58147830963134L125.6621875,136.3485534667969L125.69534375,137.90975264635952L125.7285,139.22062397003174L125.96059375,137.99862756729127L126.3253125,138.28790840669112L126.391625,138.4493245124817L126.78949999999999,136.9648895957253L126.82265625,135.64784785183994L126.92212500000001,137.747426553206L126.9884375,137.30002735311334L127.02159375000001,139.2954623742537L127.983125,137.36406406922774L128.381,134.28074913024903L128.41415625,137.07329011396928L128.7125625,137.05530059987848L128.9115,136.5415950861844L129.01096875000002,135.42013003609398L129.20990625,136.39040367820047L129.34253125,135.91628491661766L129.90618750000002,135.28807445005938L129.9725,138.03991459933195L130.00565625,135.51426385532727L130.0388125,136.00156132091175L130.40353125,135.8017937746915L131.00034375,135.5237090024081L131.564,134.77878997109156L131.79609374999998,133.85718300559301L131.82925,138.32499384446578L131.92871875,136.18410355828024L132.45921875,133.75516620982776L132.59184375,132.731542448564L132.757625,135.18667454286054L132.8239375,134.47896371321244L132.89025,134.29453858462247L132.9565625,137.0219962900335L133.022875,135.6361269690774L133.15550000000002,134.7241539001465L133.18865625,134.68469451557507L133.553375,134.92397055192427L133.65284375,136.0238475712863L133.91809375,135.0803410616788L134.0175625,134.62536886388605L134.31596875,134.34690659262918L134.8133125,133.701855988936L134.9459375,134.55887686989524L135.01225,135.89042470238428L135.50959375,135.494147456776L135.940625,136.47660388079558L136.70321875000002,135.79510928067293L137.2005625,136.78643539602106L137.23371875,136.5237252668901L137.43265625,133.83313048969615L137.4658125,134.71932621002196L137.63159375,134.70446564067493L137.79737500000002,136.87908070304178L137.93,135.94002898823132L137.9963125,133.60821169072932L138.5268125,134.78589800054377L138.89153124999999,135.00114607377486L139.123625,134.26999194405295L139.15678125,133.83126447851006L139.38887499999998,135.6608485481956L139.48834375,136.55729965730146L140.28409374999998,136.39966467944058L140.3835625,132.26880850358444L140.61565625,133.14307771162552L140.715125,133.76545075503262L140.74828125,133.69446867162532L140.81459375,133.39730945933948L140.84775,136.12770582545886L141.510875,133.434522264654L141.67665625,132.8489108692516L141.9750625,132.22131422216242L142.041375,133.80783805847167L142.1076875,132.13016510009766L142.7708125,134.21806895516136L143.0360625,133.87133461345326L143.50025,134.906958545338L143.53340624999998,135.45168035680598L143.6991875,132.1322428790006L143.86496875,135.74987078579989L144.0970625,131.24898121573707L144.4949375,133.75019427212803L145.05859375,131.67300463589754L145.12490625,131.6271062850952L145.19121875000002,133.99769548936322L145.2906875,133.72996892062102L145.45646875,141.41440247622404L146.020125,140.6083332148465L146.18590625,142.52520855123348L146.91534375,139.29739130193536L147.0148125,140.8964585390958L147.18059375,141.29303962534124L147.4126875,139.42660336927935L147.5453125,139.97397688085383L147.611625,141.15881265293467L147.8105625,140.015472611514L147.84371875,141.19398297396575L148.04265625,138.72814893722534L148.27474999999998,141.41445618542758L148.47368749999998,140.7319395758889L148.57315625,137.75568856326018L149.1368125,139.9248390978033L149.203125,139.63135359504005L149.5346875,138.62210088209673L149.63415625000002,138.55410349585793L149.70046875,139.38060680736194L149.86625,142.71538363370027L150.39675,141.08592619462448L150.4630625,138.29379646994852L150.662,139.8997093287381L150.794625,139.2289642420682L150.8609375,140.53579202998768L151.32512499999999,139.08493917638606L151.723,140.23916070244528L151.88878125,138.71728433262217L152.28665625,139.54257228157738L152.51874999999998,140.65717329545456L152.55190625,137.86777660196478L153.14871875,139.45645647915927L153.21503125,139.6233340436762L153.28134375000002,139.16438276117498L153.3808125,137.89428439573808L153.48028125,139.34527382417158L154.0439375,137.3752785509283L154.40865625,140.1005694736134L154.4418125,141.14765648408368L154.64075,139.50800810727205L154.87284375000002,138.5338397806341L155.66859374999999,137.85812582536178L155.86753124999998,137.4832647410306L155.93384375,138.9152411114086L156.630125,137.38428481708874L156.72959375000002,140.17661249854348L156.86221874999998,138.00922516042536L156.895375,140.16513100537387L156.92853125,138.4797592163086L157.12746875,140.0097441413186L157.2269375,136.7739656535062L157.29325,137.92760712016712L157.59165625,138.2649346785112L157.82375,138.28524749929255L157.98953125000003,134.55957662409003L158.25478125,139.1040120818398L158.38740625,139.4095330498435L158.52003125000002,138.7437752463601L158.95106249999998,137.53433912450618L159.017375,139.44280666871504L159.11684375000002,137.74339222474532L159.51471875000001,139.32539528066462L159.64734375,140.26100346825342L159.813125,139.6196096940474L159.8794375,136.92841644287108L160.21099999999998,138.87440830577503L160.2773125,137.34322950189764L160.343625,137.2210809620944L160.77465625,139.86819276809692L161.30515625,139.2981723872098L161.4709375,137.69020937139337L161.70303124999998,137.04237816550514L162.5319375,135.94771707708185L162.56509375000002,138.03849053816361L162.59825,138.39770689877597L162.83034375,137.61132436232134L163.16190625000002,139.72365976680408L163.42715625,137.95170260342684L163.65925,138.71239372600206L163.791875,138.35795901905408L164.15659374999998,137.43354382948442L164.35553125,136.4481349338185L164.55446874999998,137.5481853571805L165.15128124999998,136.8683910369873L165.28390625,137.84797938953747L165.648625,138.38026828765868L165.81440625,139.322049964558L165.9801875,138.16588263078168L166.1128125,137.15893480994484L166.14596875,138.36617499264804L166.51068750000002,138.72484045028688L166.54384375,134.2037393396551L166.90856250000002,136.99825989116323L166.974875,137.97658684470434L167.00803125,136.95912429636175L167.24012499999998,139.63930409171365L167.33959375,138.76648810126562L167.37275,138.23111015666615L167.40590625000002,138.11223327463324L168.33428125,141.94028616818514L168.89793749999998,141.21585336164995L169.06371875000002,141.36875425685537L169.09687499999998,140.00031280517578L169.1631875,140.66264396147295L169.4284375,141.3409697185863L171.3515,142.47628713954578L171.84884375000001,141.241039909016L172.2135625,140.96855777393688L172.24671874999999,138.4671436916698L172.31303125,142.06407974416558L172.37934375,142.45024738311767L172.47881249999998,142.39369926452636L172.51196875,141.76993592002177L172.57828125,141.67018104900012L173.340875,140.91166284734553L173.50665625,140.58833344199442L173.606125,140.4530952020125L173.70559375000002,141.87635073228316L173.871375,140.5287100878629L174.23609375,139.65611507242377L174.5345,139.82647913152522L174.63396874999998,140.84414117119528L174.667125,138.8551435817372L174.96553125,141.47529183301057L175.16446875,140.76580859964545L175.69496875,139.9378137068315L175.89390625,141.75635669881646L176.02653125,140.88883797038685L176.3249375,140.06051314960825L176.39125,141.02906963174993L176.68965625,139.18731045289474L176.82228124999997,139.8426394635981L177.02121875,139.895058111711L177.18699999999998,140.43094859556717L177.3859375,139.81868976246227L177.68434375,140.68719060204245L177.9164375,139.32475690841676L178.0490625,138.4867782419378L178.34746875,142.02094818462024L178.84481250000002,141.21735261570325L179.07690625,139.03882598876953L179.27584374999998,141.6135961012407L179.40846875,138.45573125319046L179.44162500000002,140.80359686071222L180.07159375,139.51775095679542L180.10475,138.72782207835803L180.17106249999998,140.70458164215088L180.37,139.2810851877386L180.46946875,140.09789015163074L181.3646875,138.02237470800227L181.563625,140.36484637693925L181.69625000000002,138.2194567940452L181.79571875,139.75000950206407L182.06096875,138.033213225278L182.12728124999998,140.44105820222333L182.6909375,139.18201319087635L182.72409374999998,138.39495698755437L183.3540625,138.7762432271784L183.38721875,139.4503597172824L183.48668750000002,140.02253306995738L183.71878125,140.22700554240834L183.78509375000002,139.81463395032014L184.05034375,141.38867269862783L184.11665625,140.31283438422463L184.14981250000002,139.176715928858L184.58084374999999,139.91511773196135L184.64715625,140.0725961858576L184.97871875,140.50074447285044L185.0781875,142.20159065073187L185.44290625,139.85531176653777L185.542375,138.40651981180363L185.6086875,138.70802026228472L185.675,138.17231238972056L186.07287499999998,138.43031759262084L186.63653125000002,139.01954745379362L187.133875,139.0275884888389L187.3328125,136.98603721098468L187.56490625,140.06570913141425L187.83015625000002,139.71970063122836L187.96278125,139.88208810632878L188.19487500000002,138.94282769289885L188.22803125,138.68630793311377L188.2611875,140.20779145847666L188.59275,139.57133432735094L189.28903125,138.80524926619097L189.45481249999997,139.14798917770386L189.62059375,140.63854080546986L189.81953124999998,139.5114930673079L190.15109375,140.2489971594377L190.316875,144.3881675200029L190.5158125,143.6056520462036L190.64843749999997,144.4643010833047L190.68159375,144.59348859786988L190.94684375,142.95383254831486L191.0463125,143.67475123838946L191.07946875,143.43961081071333L191.14578125,144.7985319224271L191.24525,142.95382794466886L191.27840625000002,144.10349953391335L191.54365625,143.58609422336926L191.643125,142.30605198253284L191.67628125,143.5196958368475L191.74259375,142.85354211980646L191.80890625,143.88994406786833L191.90837499999998,144.14946847395464L191.94153125,144.23310444571754L192.14046875,142.8535052906383L192.33940625,140.92211312380704L192.40571875,139.42358798113736L192.50518749999998,141.62415686520663L193.16831249999998,141.06564406481655L193.234625,141.87607144442472L193.66565625,140.95954383503306L194.06353124999998,139.95516331412577L194.69350000000003,141.16888849952005L194.75981249999998,140.31281136599455L195.29031250000003,140.03901258815418L195.38978125,141.47731743725862L195.45609375,140.2391821861267L195.48925,141.43442066366023L196.11921875000002,140.56902728514237L196.91496874999999,140.8945035240867L197.0144375,140.21434091221204L197.44546874999997,142.71296211589464L197.71071875,137.40776034268467L197.97596875,140.98991101871837L198.009125,141.74709569757636L198.10859374999998,142.71886399009009L198.17490625,140.8128716728904L198.2080625,139.98222814906728L198.67225000000002,139.5886501745744L198.9375,139.6077046654441L199.6669375,139.90949054197833L199.86587500000002,140.10534038543702L199.96534375,139.30565638108686L200.1974375,140.1556352181868L200.62846875,136.92188233462247L200.69478125,141.84751656272192L200.7279375,141.41500555385244L200.96003125,139.96089331886984L201.55684374999998,139.72629151777787L202.08734374999997,139.67565601522273L202.31943750000002,139.673460076072L202.48521875,140.85443032004616L202.518375,140.1966444969177L202.7173125,140.41533763191916L203.14834375,140.80590942556208L203.21465625000002,142.09300752119586L203.41359375,142.16868839263915L204.27565625,140.6217666539279L204.4414375,139.89968937960538L204.87246875,139.4264652598988L205.00509375000001,136.81427824713967L205.60190624999998,141.9535569451072L205.86715625,141.31366395950317L206.62975,139.32909968116064L206.72921875,138.39588999314742L206.762375,140.33469249551948L206.8286875,140.77521691755814L206.895,142.1780215176669L206.92815625,140.83133229342374L207.06078125,139.0964421532371L207.65759375,139.18548433997415L207.79021875,139.53378392132845L208.5528125,139.60866682746195L208.98384375,140.88058516762476L209.51434375,140.47977486523715L209.8790625,140.24991942319002L209.91221875,140.7893669908697L210.4095625,141.4151359904896L210.50903125,140.4118419300426L210.87375,139.63967391794378L210.90690625,141.04532970948654L211.00637500000002,140.22611550417813L211.57003125,142.3493630842729L211.70265625,139.96688880053435L212.36578125,139.0536896272139L212.43209375,139.5156117959456L212.89628125,142.52688888203016L213.0620625,142.12759931737727L213.52624999999998,142.619486618042L213.55940625,144.29469969489355L213.62571875,142.5709503780712L213.79149999999998,140.54516965692693L214.71987499999997,143.0927429632707L215.01828124999997,144.4735114444386L215.25037500000002,142.19011376120827L215.38299999999998,143.11398572054776L215.5819375,142.86646301963114L215.780875,141.62985310987992L215.94665625000002,142.3757972197099L216.046125,140.99950041337448L216.1124375,142.18035096255215L216.60978125,141.62501314336603L216.9081875,142.14971523284913L217.17343749999998,141.14534391923385L217.505,142.03556629527696L217.73709375,143.85560393766923L217.902875,141.86182622909547L217.9691875,142.43304202339868L218.06865625,140.59572996659713L218.3670625,141.7626775047996L218.43337499999998,141.88123213161123L218.6323125,142.1090849876404L219.03018749999998,143.1266764380715L219.19596875,141.72078432603317L219.46121875,143.46691656979647L219.52753125,142.408796154369L219.85909375,142.83995829495515L219.92540625,141.7905694614757L220.42275,142.96076410466975L220.78746875000002,139.87494785135442L220.85378125000003,142.39494992169466L220.98640625,142.00509476228194L221.38428125000002,142.02745774009009L221.48375000000001,143.04493716846815L222.6110625,141.82007883245294L222.84315625,142.68506248647518L222.942625,142.15000679709692L223.07524999999998,141.09063725904986L223.5394375,142.9178519855846L223.90415625,141.78566044027156L224.13625,140.9238394910639L224.36834375,142.63620399128308L224.69990625,141.06007825678046L224.799375,141.52040142579511L224.96515625,142.11999869780107L225.13093750000002,140.91115337718617L225.329875,142.15567388534546L225.3961875,142.02665670568294L225.72775000000001,141.6787745215676L225.76090625,142.86702159534804L226.3245625,141.88201782053167L226.42403124999998,142.2525146484375L226.656125,141.22967504154553L227.05399999999997,141.54613734158602L227.55134375,141.87807709954L227.61765625,142.97640422474257L227.84975,140.3741564837369L228.18131250000002,141.20270227952437L228.4465625,141.8071011543274L228.512875,141.97716597643765L228.57918750000002,141.98935489654542L228.67865625,142.79225071126766L228.74496875,139.65577286806973L229.043375,142.79404306411743L229.37493750000002,140.6511471228166L229.40809375,141.83431637503884L229.73965625,142.32875563014636L229.87228125,143.6744658123363L229.9054375,142.43599296049638L230.53540625,140.13991376703436L230.7011875,142.463001017137L230.76749999999998,142.39469058296896L230.80065625,140.3399744120511L230.900125,141.78605021563445L231.19853125,140.71764372045342L231.79534375,140.84297798330132L232.45846875,139.85542378859085L232.62425,141.88069964322176L232.756875,141.84697640158913L232.92265625,142.52077524011784L233.12159375000002,142.07479089390148L233.15475,141.88309660824862L233.18790625000003,141.7253511428833L233.287375,141.6949778210033L233.38684375,142.00155609304255L233.85103124999998,141.66792679699984L234.01681250000001,140.88923695304175L234.11628125000001,139.57093687924473L234.6799375,142.67033542286265L234.71309375,143.845307116075L234.84571875,142.43488655090331L235.0115,141.88534932570025L235.24359375,145.1323745207353L235.542,143.8782538760792L235.6083125,144.71688012209805L235.939875,143.2266921823675L236.1388125,145.023806736686L236.205125,144.6742058580572L236.4040625,144.31219048066572L236.470375,144.39217576113614L236.5366875,143.430636770075L236.9345625,144.02577924728394L237.000875,143.549367869984L237.0671875,142.82211609753696L237.3324375,144.60923153270375L237.82978125000002,144.13377311012962L237.96240625,144.42215777310457L238.12818750000002,143.46968489560214L238.22765625,144.37734895185991L238.75815624999998,143.89808024493132L239.08971874999997,144.111810649525L239.122875,143.01763754757968L239.1891875,143.3150238730691L239.38812499999997,144.66769323348998L239.42128125,145.06707487106323L239.5870625,144.76433757435194L239.81915625,143.83601235476408L239.98493749999997,144.44704354893076L240.21703125000002,144.8657390160994L240.41596875,144.48639704964378L240.847,143.6126112244346L241.07909375,143.72277340455489L241.70906250000002,144.4589286284013L242.3721875,143.33387119986796L242.47165625,144.29987879666416L242.60428124999999,143.2976190220226L242.6374375,144.11898773366755L242.86953125,143.6132925640453L243.4331875,143.08861195824363L243.79790624999998,144.40664962421766L244.162625,144.12484050230546L244.39471874999998,144.27685289382936L244.59365625,144.14178498875012L245.38940625,141.42122507962313L246.15200000000002,141.06315349232068L246.45040625000001,142.75772029703313L246.94775,143.55076891292225L246.98090625,142.78695038015192L247.213,143.26977310180663L247.345625,143.99596296657216L247.6771875,144.11941433819857L247.77665625,142.567799949646L247.8098125,142.60558514161542L248.141375,144.26500924717297L248.274,143.15157142118974L248.53925,142.4447015242143L248.57240625,142.64027361436322L248.70503125,143.26272338520397L249.0034375,142.00511164231733L249.03659375,143.4132181080905L249.36815625,143.34779262542725L249.4013125,143.14966704628685L249.43446875,143.93004796288233L249.69971875,142.16609193628486L249.83234375,140.839199924469L250.36284375,141.2788112900474L250.62809375,142.2502036181363L251.05912500000002,142.6791560086337L251.15859375,142.10274269797583L251.29121875,143.66672401428224L251.35753125000002,142.31860612522473L251.3906875,140.89845498691906L251.49015624999998,141.1204335906289L251.78856249999998,142.83774087212305L251.82171875,143.4928366314281L252.120125,144.23823751102793L252.21959375,142.811555333571L252.55115625000002,142.58056125640869L252.7169375,144.51480001102794L253.6453125,143.6830408703197L253.9105625,144.15899802121248L254.20896875,142.31677233956077L254.27528125,143.17599069421942L254.40790625,142.4328993103721L254.60684375,144.1850700031627L254.67315625,141.55355534987015L254.7063125,144.18802400935778L254.93840624999999,141.25142573443327L255.037875,142.80924737236717L255.20365625,142.87241093028675L255.303125,142.62282886505128L255.33628125,141.98733389594338L255.568375,142.85312011892145L255.70100000000002,141.57810812863437L255.83362499999998,143.9452031655745L256.1651875,143.02923566644841L256.19834375,142.6020710251548L256.59621875,142.43339803869074L256.72884375,142.00115557583896L256.9609375,140.81301745501432L257.09356249999996,142.55069893923672L257.45828124999997,142.87160836133089L257.85615625,143.9290290225636L258.38665625,144.29130220413208L259.0829375,143.29117084849963L259.21556250000003,143.6927883234891L259.71290625,143.33337400609796L259.8786875,143.1960380380804L259.97815625,143.87492390545933L260.17709375000004,143.62350345091386L260.30971875,143.69662929881702L260.44234375,143.65779601010408L260.70759375,143.16570307991722L260.90653125,142.6696863087741L260.9396875,141.52133289683948L260.97284375,142.8252235585993L261.50334375,143.07521841742775L261.7354375,142.96213292208586L261.80174999999997,142.54303847226228L262.0006875,143.95873021212492L262.2659375,143.70989547209305L262.36540625,142.58469686508178L262.49803125,143.6016806342385L262.56434375000003,142.8328119017861L262.82959375,143.04956076361916L263.09484375,143.59130401611327L263.1943125,143.77779771631415L263.6585,141.3581535946239L263.791125,142.5680470119823L264.056375,141.62160951440984L264.15584375000003,142.47540323951029L264.35478125,144.07319987036965L264.9184375,144.1170173731717L264.95159375,142.82645580118353L265.01790625,142.82126595757225L265.3163125,143.1899750362743" style="fill: none;" fill="none"></path></g></g></g></g></g></g><g transform="translate(31, 177)" clip-path="url(#clip_1)"><clipPath id="clip_1"><rect width="298" height="23"></rect></clipPath><g><g><line x1="0" y1="0" x2="0" y2="5" style="visibility: inherit;" fill="rgb(0, 0, 0)" stroke="rgb(204, 204, 204)" stroke-width="1px"></line><line x1="33.15625" y1="0" x2="33.15625" y2="5" style="visibility: inherit;" fill="rgb(0, 0, 0)" stroke="rgb(204, 204, 204)" stroke-width="1px"></line><line x1="66.3125" y1="0" x2="66.3125" y2="5" style="visibility: inherit;" fill="rgb(0, 0, 0)" stroke="rgb(204, 204, 204)" stroke-width="1px"></line><line x1="99.46875" y1="0" x2="99.46875" y2="5" style="visibility: inherit;" fill="rgb(0, 0, 0)" stroke="rgb(204, 204, 204)" stroke-width="1px"></line><line x1="132.625" y1="0" x2="132.625" y2="5" style="visibility: inherit;" fill="rgb(0, 0, 0)" stroke="rgb(204, 204, 204)" stroke-width="1px"></line><line x1="165.78125" y1="0" x2="165.78125" y2="5" style="visibility: inherit;" fill="rgb(0, 0, 0)" stroke="rgb(204, 204, 204)" stroke-width="1px"></line><line x1="198.9375" y1="0" x2="198.9375" y2="5" style="visibility: inherit;" fill="rgb(0, 0, 0)" stroke="rgb(204, 204, 204)" stroke-width="1px"></line><line x1="232.09375" y1="0" x2="232.09375" y2="5" style="visibility: inherit;" fill="rgb(0, 0, 0)" stroke="rgb(204, 204, 204)" stroke-width="1px"></line><line x1="265.25" y1="0" x2="265.25" y2="5" style="visibility: inherit;" fill="rgb(0, 0, 0)" stroke="rgb(204, 204, 204)" stroke-width="1px"></line><line x1="298.40625" y1="0" x2="298.40625" y2="5" style="visibility: inherit;" fill="rgb(0, 0, 0)" stroke="rgb(204, 204, 204)" stroke-width="1px"></line></g><g transform="translate(0, 8)"><text x="0" y="0" dx="0em" dy="0.95em" style="text-anchor: middle; visibility: hidden; font-family: Roboto, sans-serif; font-size: 12px; font-weight: 200;" fill="rgb(50, 49, 63)" stroke="none" stroke-width="1px">-10k</text><text x="33.15625" y="0" dx="0em" dy="0.95em" style="text-anchor: middle; visibility: inherit; font-family: Roboto, sans-serif; font-size: 12px; font-weight: 200;" fill="rgb(50, 49, 63)" stroke="none" stroke-width="1px">0</text><text x="66.3125" y="0" dx="0em" dy="0.95em" style="text-anchor: middle; visibility: inherit; font-family: Roboto, sans-serif; font-size: 12px; font-weight: 200;" fill="rgb(50, 49, 63)" stroke="none" stroke-width="1px">10k</text><text x="99.46875" y="0" dx="0em" dy="0.95em" style="text-anchor: middle; visibility: inherit; font-family: Roboto, sans-serif; font-size: 12px; font-weight: 200;" fill="rgb(50, 49, 63)" stroke="none" stroke-width="1px">20k</text><text x="132.625" y="0" dx="0em" dy="0.95em" style="text-anchor: middle; visibility: inherit; font-family: Roboto, sans-serif; font-size: 12px; font-weight: 200;" fill="rgb(50, 49, 63)" stroke="none" stroke-width="1px">30k</text><text x="165.78125" y="0" dx="0em" dy="0.95em" style="text-anchor: middle; visibility: inherit; font-family: Roboto, sans-serif; font-size: 12px; font-weight: 200;" fill="rgb(50, 49, 63)" stroke="none" stroke-width="1px">40k</text><text x="198.9375" y="0" dx="0em" dy="0.95em" style="text-anchor: middle; visibility: inherit; font-family: Roboto, sans-serif; font-size: 12px; font-weight: 200;" fill="rgb(50, 49, 63)" stroke="none" stroke-width="1px">50k</text><text x="232.09375" y="0" dx="0em" dy="0.95em" style="text-anchor: middle; visibility: inherit; font-family: Roboto, sans-serif; font-size: 12px; font-weight: 200;" fill="rgb(50, 49, 63)" stroke="none" stroke-width="1px">60k</text><text x="265.25" y="0" dx="0em" dy="0.95em" style="text-anchor: middle; visibility: inherit; font-family: Roboto, sans-serif; font-size: 12px; font-weight: 200;" fill="rgb(50, 49, 63)" stroke="none" stroke-width="1px">70k</text><text x="298.40625" y="0" dx="0em" dy="0.95em" style="text-anchor: middle; visibility: hidden; font-family: Roboto, sans-serif; font-size: 12px; font-weight: 200;" fill="rgb(50, 49, 63)" stroke="none" stroke-width="1px">80k</text></g><line x1="0" y1="0" x2="298.40625" y2="0" fill="rgb(0, 0, 0)" stroke="rgb(204, 204, 204)" stroke-width="1px"></line></g></g></g></g></svg>